<svg xmlns="http://www.w3.org/2000/svg" xmlns:xlink="http://www.w3.org/1999/xlink" id="Layer_1" x="0" y="0" version="1.1" viewBox="0 0 72 72" xml:space="preserve" style="enable-background:new 0 0 72 72"><style type="text/css">.st0{fill:url(#SVGID_11_)}.st1{fill:url(#SVGID_12_)}.st2{fill:url(#SVGID_13_)}.st3{fill:url(#SVGID_14_)}.st4{fill:url(#SVGID_15_)}.st5{fill:url(#SVGID_16_)}.st6{fill:url(#SVGID_17_)}.st7{fill:url(#SVGID_18_)}</style><linearGradient id="SVGID_1_" x1="0" x2="-.707" y1="72" y2="72.707" gradientUnits="userSpaceOnUse"><stop offset="0" style="stop-color:#5cb6a5"/><stop offset=".998" style="stop-color:#9c9"/></linearGradient><linearGradient id="SVGID_2_" x1="0" x2="-.707" y1="72" y2="72.707" gradientUnits="userSpaceOnUse"><stop offset="0" style="stop-color:#f3c07a"/><stop offset="1" style="stop-color:#ed986c"/></linearGradient><linearGradient id="SVGID_3_" x1="0" x2="-.707" y1="72" y2="72.707" gradientUnits="userSpaceOnUse"><stop offset="0" style="stop-color:#c5707c"/><stop offset="1" style="stop-color:#ed986c"/></linearGradient><linearGradient id="SVGID_4_" x1="0" x2=".707" y1="72" y2="71.293" gradientUnits="userSpaceOnUse"><stop offset="0" style="stop-color:#757fa3"/><stop offset="1" style="stop-color:#60a4af"/></linearGradient><linearGradient id="SVGID_5_" x1="0" x2="1" y1="72" y2="72" gradientUnits="userSpaceOnUse"><stop offset="0" style="stop-color:#f6796c"/><stop offset=".252" style="stop-color:#c5707c"/><stop offset=".491" style="stop-color:#927393"/><stop offset=".78" style="stop-color:#757fa3"/><stop offset="1" style="stop-color:#60a4af"/></linearGradient><linearGradient id="SVGID_6_" x1="0" x2="0" y1="72" y2="71" gradientUnits="userSpaceOnUse"><stop offset="0" style="stop-color:#a85684"/><stop offset=".274" style="stop-color:#c35074"/><stop offset=".53" style="stop-color:#e27d69"/><stop offset="1" style="stop-color:#eda472"/><stop offset="1" style="stop-color:#c9bc8f"/></linearGradient><linearGradient id="SVGID_7_" x1="0" x2="0" y1="72" y2="73" gradientUnits="userSpaceOnUse"><stop offset="0" style="stop-color:#bacc9b"/><stop offset=".294" style="stop-color:#9fcfa1"/><stop offset=".522" style="stop-color:#81bea5"/><stop offset=".794" style="stop-color:#7ea3a3"/><stop offset="1" style="stop-color:#8d7997"/></linearGradient><linearGradient id="SVGID_8_" x1="0" x2="1" y1="72" y2="72" gradientUnits="userSpaceOnUse"><stop offset="0" style="stop-color:#e6af7b"/><stop offset=".424" style="stop-color:#f3c07a"/><stop offset=".798" style="stop-color:#c5a48a"/><stop offset="1" style="stop-color:#87a9a0"/></linearGradient><g><g><g><defs><path id="SVGID_9_" d="M68.8,32.3L50.3,21.6L39.6,3.1c-1.6-2.8-5.7-2.8-7.3,0L21.6,21.6L3.1,32.3c-2.8,1.6-2.8,5.7,0,7.3 l18.5,10.7l10.7,18.5c1.6,2.8,5.7,2.8,7.3,0l10.7-18.5l18.5-10.7C71.6,38,71.6,34,68.8,32.3z M58.6,36L58.6,36L35.9,58.6v0l0,0 l0,0v0L13.3,36h0l0,0l0,0h0l22.6-22.6v0l0,0l0,0v0L58.6,36L58.6,36L58.6,36L58.6,36z M49.5,36L49.5,36L35.9,49.6v0L22.4,36h0 l13.6-13.6v0L49.5,36z"/></defs><clipPath id="SVGID_10_"><use xlink:href="#SVGID_9_" style="overflow:visible"/></clipPath><g style="clip-path:url(#SVGID_10_)"><image style="overflow:visible" width="102" height="102" transform="matrix(1 0 0 1 -15 -15)" xlink:href="8FF56DEED4DDF66D.png"/></g></g><g><linearGradient id="SVGID_11_" x1="21.595" x2="58.588" y1="18.49" y2="18.49" gradientUnits="userSpaceOnUse"><stop offset="0" style="stop-color:#e6af7b"/><stop offset=".424" style="stop-color:#f3c07a"/><stop offset=".798" style="stop-color:#c5a48a"/><stop offset="1" style="stop-color:#87a9a0"/></linearGradient><path d="M32.3,3.1L21.6,21.6l14.4-8.3v0l0,0l0,0v0L58.6,36h0l-19-32.9C38,0.3,33.9,0.3,32.3,3.1z" class="st0"/><linearGradient id="SVGID_12_" x1="53.448" x2="53.448" y1="21.633" y2="58.629" gradientUnits="userSpaceOnUse"><stop offset="0" style="stop-color:#bacc9b"/><stop offset=".294" style="stop-color:#9fcfa1"/><stop offset=".522" style="stop-color:#81bea5"/><stop offset=".794" style="stop-color:#7ea3a3"/><stop offset="1" style="stop-color:#8d7997"/></linearGradient><path d="M50.3,21.6L58.6,36h0l0,0l0,0h0L35.9,58.6v0l32.9-19c2.8-1.6,2.8-5.7,0-7.3L50.3,21.6z" class="st1"/><linearGradient id="SVGID_13_" x1="18.447" x2="18.447" y1="50.342" y2="13.348" gradientUnits="userSpaceOnUse"><stop offset="0" style="stop-color:#a85684"/><stop offset=".274" style="stop-color:#c35074"/><stop offset=".53" style="stop-color:#e27d69"/><stop offset="1" style="stop-color:#eda472"/><stop offset="1" style="stop-color:#c9bc8f"/></linearGradient><path d="M13.3,36l22.6-22.6v0l-32.9,19c-2.8,1.6-2.8,5.7,0,7.3l18.5,10.7L13.3,36L13.3,36L13.3,36L13.3,36L13.3,36z" class="st2"/><linearGradient id="SVGID_14_" x1="13.307" x2="50.303" y1="53.491" y2="53.491" gradientUnits="userSpaceOnUse"><stop offset="0" style="stop-color:#f6796c"/><stop offset=".252" style="stop-color:#c5707c"/><stop offset=".491" style="stop-color:#927393"/><stop offset=".78" style="stop-color:#757fa3"/><stop offset="1" style="stop-color:#60a4af"/></linearGradient><path d="M35.9,58.6L35.9,58.6L35.9,58.6L35.9,58.6L35.9,58.6L13.3,36h0l19,32.9c1.6,2.8,5.7,2.8,7.3,0l10.7-18.5 L35.9,58.6z" class="st3"/><linearGradient id="SVGID_15_" x1="32.555" x2="46.133" y1="46.175" y2="32.598" gradientUnits="userSpaceOnUse"><stop offset="0" style="stop-color:#757fa3"/><stop offset="1" style="stop-color:#60a4af"/></linearGradient><polygon points="35.9 36 35.9 49.6 49.5 36" class="st4"/><linearGradient id="SVGID_16_" x1="-53.813" x2="-67.391" y1="-67.332" y2="-53.755" gradientTransform="matrix(0 1 -1 0 -27.9885 99.9885)" gradientUnits="userSpaceOnUse"><stop offset="0" style="stop-color:#c5707c"/><stop offset="1" style="stop-color:#ed986c"/></linearGradient><polygon points="35.9 36 22.4 36 35.9 49.6" class="st5"/><linearGradient id="SVGID_17_" x1="-153.743" x2="-167.321" y1="32.613" y2="46.191" gradientTransform="matrix(-1 0 0 -1 -127.977 72)" gradientUnits="userSpaceOnUse"><stop offset="0" style="stop-color:#f3c07a"/><stop offset="1" style="stop-color:#ed986c"/></linearGradient><polygon points="35.9 36 35.9 22.4 22.4 36" class="st6"/><linearGradient id="SVGID_18_" x1="-53.797" x2="-67.375" y1="132.544" y2="146.121" gradientTransform="matrix(0 -1 1 0 -99.9885 -27.9885)" gradientUnits="userSpaceOnUse"><stop offset="0" style="stop-color:#5cb6a5"/><stop offset=".998" style="stop-color:#9c9"/></linearGradient><polygon points="35.9 36 49.5 36 35.9 22.4" class="st7"/></g></g></g></svg>