<svg xmlns="http://www.w3.org/2000/svg" xmlns:xlink="http://www.w3.org/1999/xlink" id="Layer_1" x="0" y="0" version="1.1" viewBox="0 0 72 72" xml:space="preserve" style="enable-background:new 0 0 72 72"><style type="text/css">.st0{fill:url(#SVGID_1_)}.st1{fill:url(#SVGID_2_)}.st2{fill:url(#SVGID_3_)}.st3{fill:url(#SVGID_4_)}.st4{fill:url(#SVGID_5_)}.st5{fill:url(#SVGID_6_)}.st6{fill:url(#SVGID_7_)}.st7{fill:url(#SVGID_8_)}</style><g><g><linearGradient id="SVGID_1_" x1="21.643" x2="58.643" y1="144.5" y2="144.5" gradientTransform="matrix(1 0 0 1 0 -126)" gradientUnits="userSpaceOnUse"><stop offset="0" style="stop-color:#fff"/><stop offset="1" style="stop-color:#fff;stop-opacity:.6"/></linearGradient><path d="M32.3,3.1L21.6,21.6L36,13.4l0,0l0,0l0,0l0,0L58.6,36l0,0l-19-32.9C38,0.3,34,0.3,32.3,3.1z" class="st0"/><linearGradient id="SVGID_2_" x1="53.5" x2="53.5" y1="147.645" y2="184.645" gradientTransform="matrix(1 0 0 1 0 -126)" gradientUnits="userSpaceOnUse"><stop offset="0" style="stop-color:#fff"/><stop offset="1" style="stop-color:#fff;stop-opacity:.6"/></linearGradient><path d="M50.3,21.6L58.6,36l0,0l0,0l0,0l0,0L36,58.6l0,0l32.9-19c2.8-1.6,2.8-5.7,0-7.3L50.3,21.6z" class="st1"/><linearGradient id="SVGID_3_" x1="18.5" x2="18.5" y1="176.349" y2="139.349" gradientTransform="matrix(1 0 0 1 0 -126)" gradientUnits="userSpaceOnUse"><stop offset="0" style="stop-color:#fff"/><stop offset="1" style="stop-color:#fff;stop-opacity:.6"/></linearGradient><path d="M13.4,36L36,13.4l0,0l-32.9,19c-2.8,1.6-2.8,5.7,0,7.3l18.5,10.7L13.4,36L13.4,36L13.4,36L13.4,36L13.4,36z" class="st2"/><linearGradient id="SVGID_4_" x1="50.346" x2="13.346" y1="179.5" y2="179.5" gradientTransform="matrix(1 0 0 1 0 -126)" gradientUnits="userSpaceOnUse"><stop offset="0" style="stop-color:#fff"/><stop offset="1" style="stop-color:#fff;stop-opacity:.6"/></linearGradient><path d="M36,58.6L36,58.6L36,58.6L36,58.6L36,58.6L13.4,36l0,0l19,32.9c1.6,2.8,5.7,2.8,7.3,0l10.7-18.5L36,58.6z" class="st3"/><linearGradient id="SVGID_5_" x1="-701.048" x2="-714.297" y1="-759.048" y2="-772.297" gradientTransform="matrix(-1.346900e-10 1 -1 -1.346900e-10 -722.9885 736.9885)" gradientUnits="userSpaceOnUse"><stop offset="0" style="stop-color:#fff"/><stop offset="1" style="stop-color:#fff;stop-opacity:.6"/></linearGradient><polygon points="36 36 49.6 36 36 22.4" class="st4"/><linearGradient id="SVGID_6_" x1="-885.055" x2="-898.305" y1="898.922" y2="885.672" gradientTransform="matrix(2.244830e-10 -1 1 2.244830e-10 -862.9885 -848.9885)" gradientUnits="userSpaceOnUse"><stop offset="0" style="stop-color:#fff"/><stop offset="1" style="stop-color:#fff;stop-opacity:.6"/></linearGradient><polygon points="36 36 22.4 36 36 49.6" class="st5"/><linearGradient id="SVGID_7_" x1="-1621.217" x2="-1629.223" y1="-21.239" y2="-29.246" gradientTransform="matrix(-1 0 0 -1 -1585.9771 14)" gradientUnits="userSpaceOnUse"><stop offset="0" style="stop-color:#fff"/><stop offset="1" style="stop-color:#fff;stop-opacity:.6"/></linearGradient><polygon points="36 36 36 49.6 49.6 36" class="st6"/><linearGradient id="SVGID_8_" x1="36.757" x2="28.751" y1="162.757" y2="154.751" gradientTransform="matrix(1 0 0 1 0 -126)" gradientUnits="userSpaceOnUse"><stop offset="0" style="stop-color:#fff"/><stop offset="1" style="stop-color:#fff;stop-opacity:.6"/></linearGradient><polygon points="36 36 36 22.4 22.4 36" class="st7"/></g></g></svg>